<svg xmlns="http://www.w3.org/2000/svg" viewBox="0 0 512 512"><path stroke="#146fc7" stroke-linejoin="round" stroke-width="52" d="m366 26-35 22v24l-69-41L70 144l-12 7v221l191 114 13-7 123-70 56-32 13-7V144l-53-31V48Z"/><path fill="#ffe8b6" d="m261 258 1 221 192-335L262 31Z"/><path fill="#d8c392" d="m70 370 192 109 192-109V144Z"/><path fill="#8e031b" d="m331 48 35 120 35-120-35-22Z"/><path fill="#630f1c" d="m331 90 35 78 35-21V48Z"/><path fill="#710e1f" d="m331 48 35 21v99l-35-21z"/><path fill="#5db0ff" d="M327 285v40l35-20v-40zm0 49v41l35-20v-41zm-43-25v41l35-20v-41zm0 49v41l35-20v-41z"/><path fill="#a4614e" d="M385 256v153.2l56-31.8V225Z"/><path fill="#613a11" d="m70 144 192 113v222L70 370Z"/><path fill="#7d5325" d="m81 353-15 10 175 110v-25Z"/><path fill="#644320" d="m91 160-21 20v177l7 5 12-5z"/><path fill="#9a672f" d="m70 144-12 7 20 35 152 90v176l32 27V31Z"/><path fill="#785026" d="m262 257-33 20 2 176 18 33 13-7z"/><path fill="#7d5325" d="m98 200 131 263 12-15-131-253Z"/><path fill="#8e5f2b" d="m76 187 21 11 133 257-20-10z"/><path fill="#8e5f2b" d="M58 151v221l191 114-1-220.5zm19 37 152 89v176L77 362Z"/></svg>